<?xml version="1.0" encoding="utf-8"?>
<!-- Generator: Adobe Illustrator 28.0.0, SVG Export Plug-In . SVG Version: 6.00 Build 0)  -->
<svg version="1.1" id="Layer_1" xmlns="http://www.w3.org/2000/svg" xmlns:xlink="http://www.w3.org/1999/xlink" x="0px" y="0px"
	 viewBox="0 0 664 665" style="enable-background:new 0 0 664 665;" xml:space="preserve">
<style type="text/css">
	.st0{fill:#FFFFFF;fill-opacity:0.1;}
	.st1{fill:none;stroke:#FFFFFF;stroke-width:0.9379;stroke-opacity:0.2;}
	.st2{opacity:0.8;fill:#FFFFFF;}
	.st3{opacity:0.8;fill:none;stroke:#FFFFFF;stroke-width:2.739;}
	.st4{fill-rule:evenodd;clip-rule:evenodd;fill:#FFFFFF;fill-opacity:0.2;}
	.st5{opacity:0.8;}
	.st6{clip-path:url(#SVGID_00000000212176301026823310000004193888533424153266_);}
	.st7{fill:#FFFFFF;}
	.st8{opacity:0.8;fill-rule:evenodd;clip-rule:evenodd;fill:#FFFFFF;}
	.st9{clip-path:url(#SVGID_00000048492180001834903530000000816456713386193797_);}
	.st10{opacity:0.8;fill:url(#SVGID_00000079446462481296152060000012051955808005911718_);}
	.st11{opacity:0.8;fill:none;stroke:#FFFFFF;stroke-width:1.5786;}
	.st12{opacity:0.2;fill:url(#SVGID_00000054254069727068357810000015884676254778694793_);enable-background:new    ;}
</style>
<g>
	<g>
		<path class="st0" d="M363.3,83.5h-49.7c-7.8,0-14.1,6.3-14.1,14.1v49.7c0,7.8,6.3,14.1,14.1,14.1h49.7c7.8,0,14.1-6.3,14.1-14.1
			V97.6C377.4,89.8,371.1,83.5,363.3,83.5z"/>
		<path class="st1" d="M363.3,83.1h-49.7c-8,0-14.5,6.5-14.5,14.5v49.7c0,8,6.5,14.5,14.5,14.5h49.7c8,0,14.5-6.5,14.5-14.5V97.6
			C377.8,89.6,371.3,83.1,363.3,83.1z"/>
	</g>
	<path class="st2" d="M322.2,125.2v9.2l7.8,4.6v5.4l-12.4-7.3v-14.6L322.2,125.2L322.2,125.2z M322.2,116v5.4l-4.6-2.7v-5.4l4.6-2.7
		l4.6,2.7L322.2,116L322.2,116z M333.3,113.3l4.6-2.7l4.6,2.7l-4.6,2.7L333.3,113.3L333.3,113.3z M325.5,132.5v-5.4l4.6,2.7v5.4
		L325.5,132.5L325.5,132.5z M333.3,140.9l4.6,2.7l4.6-2.7v5.4l-4.6,2.7l-4.6-2.7V140.9L333.3,140.9z M349,113.3l4.6-2.7l4.5,2.7v5.4
		l-4.6,2.7V116L349,113.3L349,113.3L349,113.3z M353.6,134.4v-9.2l4.6-2.7v14.6l-12.4,7.3V139L353.6,134.4L353.6,134.4L353.6,134.4z
		 M350.3,132.5l-4.6,2.7v-5.4l4.6-2.7V132.5z M350.3,117.9v5.4l-7.8,4.6v9.2l-4.6,2.7l-4.6-2.7v-9.2l-7.8-4.6v-5.4l4.6-2.7l7.8,4.6
		l7.8-4.6L350.3,117.9L350.3,117.9L350.3,117.9z M325.5,108.7l12.4-7.3l12.4,7.3l-4.6,2.7l-7.8-4.6l-7.8,4.6L325.5,108.7
		L325.5,108.7z"/>
	<g>
		<path class="st0" d="M430.1,416.4h48.8c8.3,0,15,6.7,15,15v48.8c0,8.3-6.7,15-15,15h-48.8c-8.3,0-15-6.7-15-15v-48.8
			C415.1,423.1,421.9,416.4,430.1,416.4z"/>
		<path class="st1" d="M430.1,415.9h48.8c8.5,0,15.5,6.9,15.5,15.5v48.8c0,8.5-6.9,15.5-15.5,15.5h-48.8c-8.5,0-15.5-6.9-15.5-15.5
			v-48.8C414.7,422.8,421.6,415.9,430.1,415.9z"/>
	</g>
	<path class="st3" d="M454.4,466.6c16.6,0.3,30.1-4.4,30.2-10.4s-13.3-11.1-29.8-11.3c-16.6-0.3-30.1,4.4-30.2,10.4
		C424.4,461.3,437.8,466.3,454.4,466.6z"/>
	<path class="st3" d="M444.5,461c8.1,13.7,19.1,22.5,24.6,19.6s3.5-16.4-4.6-30.1c-8.1-13.7-19.1-22.5-24.6-19.6
		S436.5,447.3,444.5,461z"/>
	<path class="st3" d="M444.7,450.2c-8.5,13.4-11,26.8-5.6,29.9s16.7-5.3,25.2-18.8c8.5-13.4,11-26.8,5.6-29.9
		S453.2,436.7,444.7,450.2z"/>
	<g>
		<path class="st4" d="M465.9,456c-0.8-1.6-1.6-3.2-2.6-4.8s-1.9-3.2-3-4.6c-1.8-0.2-3.7-0.3-5.7-0.3s-3.9,0-5.7,0.1
			c-1.1,1.4-2.1,2.9-3.1,4.5c-1,1.6-1.9,3.2-2.7,4.7c0.8,1.6,1.6,3.2,2.6,4.8s1.9,3.2,3,4.6c1.8,0.2,3.7,0.3,5.7,0.3s3.9,0,5.7-0.1
			c1.1-1.4,2.1-2.9,3.1-4.5C464.1,459.2,465,457.6,465.9,456z"/>
	</g>
	<path class="st2" d="M454.5,461c3.1,0.1,5.6-2.3,5.7-5.2c0-2.9-2.4-5.3-5.5-5.4c-3.1-0.1-5.6,2.3-5.7,5.2
		C448.9,458.6,451.4,461,454.5,461z"/>
	<g>
		<path class="st0" d="M532.5,290.8l50.6,0.6c7.8,0.1,14,6.5,13.9,14.2l-0.6,50.6c-0.1,7.8-6.5,14-14.2,13.9l-50.6-0.6
			c-7.8-0.1-14-6.5-13.9-14.2l0.6-50.6C518.5,297,524.8,290.8,532.5,290.8z"/>
		<path class="st1" d="M532.5,290.3l50.6,0.6c8,0.1,14.5,6.7,14.4,14.7l-0.6,50.6c-0.1,8-6.7,14.5-14.7,14.4l-50.6-0.6
			c-8-0.1-14.5-6.7-14.4-14.7l0.6-50.6C518,296.8,524.5,290.2,532.5,290.3z"/>
	</g>
	<path class="st2" d="M544.5,325.5c0,0.7,0.1,1.3,0.2,1.8c0.2,0.4,0.3,0.9,0.6,1.4c0.1,0.2,0.1,0.3,0.1,0.5s-0.1,0.4-0.4,0.6
		l-1.3,0.8c-0.2,0.1-0.4,0.2-0.5,0.2c-0.2,0-0.4-0.1-0.6-0.3c-0.3-0.3-0.5-0.6-0.7-0.9s-0.4-0.7-0.6-1.2c-1.6,1.8-3.5,2.7-5.9,2.7
		c-1.7,0-3-0.5-4-1.5s-1.5-2.3-1.4-3.8c0-1.7,0.6-3.1,1.9-4.1c1.2-1,2.9-1.5,4.9-1.5c0.7,0,1.4,0.1,2.1,0.2c0.7,0.1,1.5,0.3,2.3,0.5
		v-1.5c0-1.5-0.3-2.6-0.9-3.2c-0.6-0.6-1.7-0.9-3.2-1c-0.7,0-1.4,0.1-2.2,0.2c-0.7,0.2-1.5,0.4-2.2,0.7c-0.3,0.1-0.6,0.2-0.7,0.3
		c-0.1,0-0.2,0.1-0.3,0.1c-0.3,0-0.4-0.2-0.4-0.6v-1c0-0.3,0-0.6,0.1-0.7c0.1-0.1,0.3-0.3,0.6-0.4c0.7-0.4,1.5-0.6,2.5-0.9
		c1-0.2,2-0.4,3.1-0.3c2.4,0,4.1,0.6,5.2,1.7c1.1,1.1,1.6,2.7,1.6,4.9L544.5,325.5L544.5,325.5z M536.2,328.5c0.7,0,1.3-0.1,2.1-0.3
		c0.7-0.2,1.4-0.7,1.9-1.3c0.3-0.4,0.6-0.8,0.7-1.3c0.1-0.5,0.2-1.1,0.2-1.7v-0.8c-0.6-0.1-1.2-0.3-1.8-0.4
		c-0.6-0.1-1.3-0.1-1.9-0.1c-1.3,0-2.3,0.2-3,0.8c-0.7,0.5-1,1.3-1,2.3c0,0.9,0.2,1.6,0.7,2.1C534.6,328.2,535.3,328.5,536.2,328.5z
		 M552.2,330.8c-0.4,0-0.6-0.1-0.8-0.2c-0.2-0.1-0.3-0.4-0.4-0.8l-4.5-15.5c-0.1-0.4-0.2-0.7-0.2-0.8c0-0.3,0.2-0.5,0.5-0.5h2
		c0.4,0,0.6,0.1,0.8,0.2c0.2,0.1,0.3,0.4,0.4,0.8l3.2,13.3l3.3-13.2c0.1-0.4,0.2-0.7,0.4-0.8c0.2-0.1,0.4-0.2,0.8-0.2h1.6
		c0.4,0,0.6,0.1,0.8,0.2c0.2,0.1,0.3,0.4,0.4,0.8l3,13.4l3.6-13.3c0.1-0.4,0.3-0.7,0.4-0.8c0.2-0.1,0.4-0.2,0.8-0.2h1.9
		c0.3,0,0.5,0.2,0.5,0.5c0,0.1,0,0.2,0,0.3s-0.1,0.3-0.1,0.5l-5,15.4c-0.1,0.4-0.3,0.7-0.4,0.8c-0.2,0.1-0.4,0.2-0.8,0.2h-1.7
		c-0.4,0-0.6-0.1-0.8-0.2c-0.2-0.1-0.3-0.4-0.4-0.8l-2.9-12.9l-3.2,12.8c-0.1,0.4-0.2,0.7-0.4,0.8s-0.4,0.2-0.8,0.2H552.2z
		 M578,331.8c-1,0-2.1-0.1-3.1-0.4s-1.8-0.5-2.3-0.8c-0.3-0.2-0.5-0.4-0.6-0.6c-0.1-0.2-0.1-0.4-0.1-0.6v-1c0-0.4,0.2-0.6,0.5-0.6
		c0.1,0,0.2,0,0.4,0.1c0.1,0,0.3,0.1,0.5,0.2c0.7,0.3,1.4,0.6,2.2,0.7c0.8,0.2,1.6,0.3,2.4,0.3c1.3,0,2.2-0.2,2.9-0.6
		c0.7-0.4,1-1.1,1.1-1.9c0-0.6-0.2-1-0.5-1.4c-0.4-0.4-1-0.7-2-1.1l-2.9-0.9c-1.5-0.5-2.5-1.2-3.2-2.1c-0.6-0.9-1-1.9-1-2.9
		c0-0.8,0.2-1.6,0.6-2.2c0.4-0.6,0.9-1.2,1.5-1.6c0.6-0.5,1.3-0.8,2.1-1c0.8-0.2,1.6-0.3,2.5-0.3c0.4,0,0.9,0,1.3,0.1
		c0.5,0.1,0.9,0.1,1.3,0.2c0.4,0.1,0.8,0.2,1.1,0.3c0.3,0.1,0.6,0.2,0.8,0.4c0.3,0.2,0.5,0.3,0.6,0.5c0.1,0.2,0.2,0.4,0.2,0.7v0.9
		c0,0.4-0.2,0.6-0.5,0.6c-0.2,0-0.4-0.1-0.8-0.2c-1.1-0.5-2.4-0.8-3.8-0.8c-1.1,0-2,0.2-2.7,0.5c-0.6,0.4-0.9,0.9-1,1.8
		c0,0.6,0.2,1,0.6,1.4c0.4,0.4,1.1,0.8,2.2,1.1l2.8,0.9c1.4,0.5,2.5,1.1,3.1,2c0.6,0.8,0.9,1.8,0.9,2.8c0,0.9-0.2,1.6-0.5,2.3
		c-0.4,0.7-0.9,1.3-1.5,1.7c-0.6,0.5-1.4,0.8-2.2,1.1C579.8,331.5,579,331.8,578,331.8z"/>
	<path class="st2" d="M581.5,341.5c-6.6,4.8-16.2,7.2-24.4,7.1c-11.5-0.1-21.8-4.5-29.6-11.7c-0.6-0.6,0-1.3,0.7-0.9
		c8.4,5,18.8,8.1,29.6,8.2c7.3,0.1,15.3-1.3,22.7-4.4C581.8,339.5,582.6,340.6,581.5,341.5z M584.3,338.3c-0.8-1.1-5.5-0.6-7.7-0.3
		c-0.6,0.1-0.7-0.5-0.1-0.9c3.8-2.6,9.9-1.8,10.7-0.9c0.7,0.9-0.3,7.1-3.8,10c-0.5,0.5-1.1,0.2-0.8-0.4
		C583.3,343.8,585.1,339.5,584.3,338.3z"/>
	<g>
		<path class="st0" d="M193.3,178.8h50.6c7.8,0,14.1,6.3,14.1,14.1v50.6c0,7.8-6.3,14.1-14.1,14.1h-50.6c-7.8,0-14.1-6.3-14.1-14.1
			v-50.6C179.2,185.1,185.5,178.8,193.3,178.8z"/>
		<path class="st1" d="M193.3,178.3h50.6c8,0,14.5,6.5,14.5,14.5v50.6c0,8-6.5,14.5-14.5,14.5h-50.6c-8,0-14.5-6.5-14.5-14.5v-50.6
			C178.7,184.8,185.3,178.3,193.3,178.3z"/>
	</g>
	<path class="st2" d="M230.2,212.2c-0.8-0.5-1.9-0.5-2.8,0l-6.5,3.8l-4.4,2.4l-6.4,3.8c-0.8,0.5-1.9,0.5-2.8,0l-5-3
		c-0.8-0.5-1.4-1.4-1.4-2.4V211c0-0.9,0.5-1.9,1.4-2.4l5-2.9c0.8-0.5,1.9-0.5,2.8,0l5,3c0.8,0.5,1.4,1.4,1.4,2.4v3.8l4.4-2.6v-4
		c0-0.9-0.5-1.9-1.4-2.4l-9.3-5.5c-0.8-0.5-1.9-0.5-2.8,0l-9.5,5.6c-0.9,0.5-1.4,1.4-1.4,2.3v10.9c0,0.9,0.5,1.9,1.4,2.4l9.4,5.5
		c0.8,0.5,1.9,0.5,2.8,0l6.4-3.7l4.4-2.6l6.4-3.7c0.8-0.5,1.9-0.5,2.8,0l5,2.9c0.8,0.5,1.4,1.4,1.4,2.4v5.8c0,0.9-0.5,1.9-1.4,2.4
		l-4.9,2.9c-0.8,0.5-1.9,0.5-2.8,0l-5-2.9c-0.8-0.5-1.4-1.4-1.4-2.4v-3.7l-4.4,2.6v3.8c0,0.9,0.5,1.9,1.4,2.4l9.4,5.5
		c0.8,0.5,1.9,0.5,2.8,0l9.4-5.5c0.8-0.5,1.4-1.4,1.4-2.4v-11.1c0-0.9-0.5-1.9-1.4-2.4L230.2,212.2z"/>
	<g>
		<path class="st0" d="M420.6,177.9h50.6c7.8,0,14.1,6.3,14.1,14.1v50.6c0,7.8-6.3,14.1-14.1,14.1h-50.6c-7.8,0-14.1-6.3-14.1-14.1
			V192C406.5,184.2,412.8,177.9,420.6,177.9z"/>
		<path class="st1" d="M420.6,177.4h50.6c8,0,14.5,6.5,14.5,14.5v50.6c0,8-6.5,14.5-14.5,14.5h-50.6c-8,0-14.5-6.5-14.5-14.5v-50.6
			C406.1,183.9,412.6,177.4,420.6,177.4z"/>
	</g>
	<g class="st5">
		<g>
			<defs>
				
					<rect id="SVGID_1_" x="413.9" y="184.3" transform="matrix(1.918353e-03 -1 1 1.918353e-03 228.7802 657.8054)" width="60" height="60"/>
			</defs>
			<clipPath id="SVGID_00000026881590974245391420000012517763204612569475_">
				<use xlink:href="#SVGID_1_"  style="overflow:visible;"/>
			</clipPath>
			<g id="Layer_x0020_1" style="clip-path:url(#SVGID_00000026881590974245391420000012517763204612569475_);">
				<g id="_1421394342400">
					<g>
						<polygon class="st7" points="445.8,186.1 445.4,187.3 445.4,222.7 445.8,223 462.2,213.3 						"/>
						<polygon class="st7" points="445.8,186.1 429.4,213.3 445.8,223 445.8,205.9 						"/>
						<polygon class="st7" points="445.8,226.2 445.6,226.4 445.6,239 445.8,239.6 462.2,216.5 						"/>
						<polygon class="st7" points="445.8,239.6 445.8,226.2 429.4,216.5 						"/>
						<polygon class="st7" points="445.8,223 462.2,213.3 445.8,205.9 						"/>
						<polygon class="st7" points="429.4,213.3 445.8,223 445.8,205.9 						"/>
					</g>
				</g>
			</g>
		</g>
	</g>
	<g>
		<path class="st0" d="M365.7,303.3H303c-4.2,0-7.6,3.4-7.6,7.6v62.6c0,4.2,3.4,7.6,7.6,7.6h62.6c4.2,0,7.6-3.4,7.6-7.6v-62.6
			C373.2,306.7,369.9,303.3,365.7,303.3z"/>
		<path class="st1" d="M365.7,302.8H303c-4.5,0-8.1,3.6-8.1,8.1v62.6c0,4.5,3.6,8.1,8.1,8.1h62.6c4.5,0,8.1-3.6,8.1-8.1v-62.6
			C373.7,306.4,370,302.8,365.7,302.8z"/>
	</g>
	<path class="st8" d="M318.5,353.1c0.3-0.3,0.8-0.5,1.2-0.5H362c0.8,0,1.2,0.9,0.6,1.5l-8.3,8.3c-0.3,0.3-0.8,0.5-1.2,0.5h-42.2
		c-0.8,0-1.2-0.9-0.6-1.5L318.5,353.1z M318.5,322c0.3-0.3,0.8-0.5,1.2-0.5H362c0.8,0,1.2,0.9,0.6,1.5l-8.3,8.3
		c-0.3,0.3-0.8,0.5-1.2,0.5h-42.2c-0.8,0-1.2-0.9-0.6-1.5L318.5,322z M354.2,337.4c-0.3-0.3-0.8-0.5-1.2-0.5h-42.2
		c-0.8,0-1.2,0.9-0.6,1.5l8.3,8.3c0.3,0.3,0.8,0.5,1.2,0.5H362c0.8,0,1.2-0.9,0.6-1.5L354.2,337.4z"/>
	<g>
		<path class="st0" d="M309,513.9h50.6c7.8,0,14.1,6.3,14.1,14.1v50.6c0,7.8-6.3,14.1-14.1,14.1H309c-7.8,0-14.1-6.3-14.1-14.1V528
			C295,520.2,301.2,513.9,309,513.9z"/>
		<path class="st1" d="M309,513.4h50.6c8,0,14.5,6.5,14.5,14.5v50.6c0,8-6.5,14.5-14.5,14.5H309c-8,0-14.5-6.5-14.5-14.5v-50.6
			C294.5,519.9,301,513.4,309,513.4z"/>
	</g>
	<g class="st5">
		<g>
			<defs>
				<rect id="SVGID_00000176732122823315898400000012867627005922851503_" x="307.1" y="526.1" width="54.5" height="54.5"/>
			</defs>
			<clipPath id="SVGID_00000091693964799338663060000000773392445896073378_">
				<use xlink:href="#SVGID_00000176732122823315898400000012867627005922851503_"  style="overflow:visible;"/>
			</clipPath>
			<g style="clip-path:url(#SVGID_00000091693964799338663060000000773392445896073378_);">
				<path class="st7" d="M334.5,526.8c-15.1,0-27.3,12.2-27.3,27.3c0,12.1,7.8,22.3,18.6,25.9c1.4,0.3,1.9-0.6,1.9-1.3
					c0-0.6,0-2.4,0-4.6c-7.6,1.6-9.2-3.7-9.2-3.7c-1.2-3.1-3-4-3-4c-2.5-1.7,0.2-1.7,0.2-1.7c2.7,0.2,4.2,2.8,4.2,2.8
					c2.4,4.2,6.4,3,7.9,2.3c0.2-1.8,0.9-3,1.7-3.6c-6.1-0.7-12.4-3-12.4-13.5c0-3,1.1-5.4,2.8-7.3c-0.3-0.7-1.2-3.5,0.2-7.2
					c0,0,2.3-0.7,7.5,2.8c2.2-0.6,4.5-0.9,6.8-0.9s4.6,0.3,6.8,0.9c5.2-3.5,7.5-2.8,7.5-2.8c1.5,3.8,0.5,6.5,0.3,7.2
					c1.7,1.9,2.8,4.3,2.8,7.3c0,10.5-6.4,12.8-12.4,13.5c0.9,0.8,1.8,2.5,1.8,5c0,3.6,0,6.6,0,7.5c0,0.7,0.5,1.6,1.9,1.3
					c10.9-3.6,18.7-13.8,18.7-25.8C361.8,539,349.5,526.8,334.5,526.8L334.5,526.8z"/>
			</g>
		</g>
	</g>
	<g>
		<path class="st0" d="M190,416.4h50.6c7.8,0,14.1,6.3,14.1,14.1v50.6c0,7.8-6.3,14.1-14.1,14.1H190c-7.8,0-14.1-6.3-14.1-14.1
			v-50.6C176,422.7,182.3,416.4,190,416.4z"/>
		<path class="st1" d="M190,415.9h50.6c8,0,14.5,6.5,14.5,14.5V481c0,8-6.5,14.5-14.5,14.5H190c-8,0-14.5-6.5-14.5-14.5v-50.6
			C175.5,422.4,182,415.9,190,415.9z"/>
	</g>
	
		<linearGradient id="SVGID_00000105422215804860771980000013904046889855935106_" gradientUnits="userSpaceOnUse" x1="205.7817" y1="663.3132" x2="230.8107" y2="697.3041" gradientTransform="matrix(1 0 0 1 0 -234)">
		<stop  offset="0" style="stop-color:#FFFFFF;stop-opacity:0"/>
		<stop  offset="1" style="stop-color:#FFFFFF"/>
	</linearGradient>
	<path style="opacity:0.8;fill:url(#SVGID_00000105422215804860771980000013904046889855935106_);" d="M240.4,438.9l-23.2,41.5
		c-0.5,0.9-1.7,0.9-2.2,0l-23.7-41.5c-0.5-0.9,0.3-2.1,1.3-1.9l23.2,4.2c0.1,0,0.3,0,0.4,0l22.7-4.1
		C240.1,436.9,240.9,438,240.4,438.9L240.4,438.9z"/>
	<g>
		<path class="st0" d="M78.6,287.9h50.6c7.8,0,14.1,6.3,14.1,14.1v50.6c0,7.8-6.3,14.1-14.1,14.1H78.6c-7.8,0-14.1-6.3-14.1-14.1
			V302C64.5,294.2,70.8,287.9,78.6,287.9z"/>
		<path class="st1" d="M78.6,287.4h50.6c8,0,14.5,6.5,14.5,14.5v50.6c0,8-6.5,14.5-14.5,14.5H78.6c-8,0-14.5-6.5-14.5-14.5V302
			C64.1,294,70.6,287.4,78.6,287.4z"/>
	</g>
	<path class="st11" d="M116.9,327.5L116.9,327.5v0.1v0.1v0.1v0.1v0.1v0.1v0.1v0.1v0.1v0.1v0.1v0.1v0.1v0.1v0.1v0.1v0.1v0.1v0.1v0.1
		v0.1v0.1v0.1v0.1v0.1v0.1v0.1v0.1v0.1v0.1v0.1v0.1v0.1v0.1v0.1v0.1v0.1v0.1v0.1v0.1v0.1v0.1v0.1v0.1v0.1v0.1v0.1v0.1v0.1v0.1v0.1
		v0.1v0.1v0.1v0.1v0.1v0.1v0.1v0.1v0.1v0.1v0.1v0.1v0.1v0.1v0.1v0.1v0.1v0.1v0.1v0.1v0.2v0.1v0.2v0.2v0.1v0.2v0.2v0.2v0.2v0.2v0.2
		v0.2v0.2v0.2v0.2v0.2v0.2v0.2v0.2v0.2v0.2v0.2v0.2l-0.1,0.2v0.2l-0.1,0.2l-0.1,0.2l-0.1,0.2l-0.1,0.2l-0.1,0.2l-0.1,0.2l-0.1,0.2
		l-0.1,0.2l-0.1,0.2l-0.1,0.2l-0.1,0.2l-0.1,0.2l-0.1,0.2l-0.1,0.2l-0.1,0.2l-0.1,0.2l-0.1,0.2l-0.1,0.2l-0.1,0.2l-0.1,0.2l-0.1,0.2
		l-0.1,0.2l-0.1,0.2l-0.1,0.2l-0.1,0.2l-0.1,0.2l-0.1,0.2l-0.1,0.2l-0.1,0.2l-0.1,0.2l-0.1,0.2l-0.1,0.2l-0.2,0.2l-0.1,0.2l-0.2,0.2
		l-0.2,0.2l-0.2,0.2l-0.2,0.2l-0.2,0.2l-0.2,0.2l-0.2,0.2l-0.2,0.2l-0.2,0.2l-0.2,0.2l-0.2,0.2l-0.2,0.2l-0.2,0.2l-0.2,0.2l-0.2,0.2
		l-0.2,0.2l-0.2,0.1l-0.2,0.2l1.4-2l-0.2,0.2l-0.2,0.1l-0.2,0.1l-0.2,0.1l-0.2,0.1l-0.2,0.1l-0.2,0.1l-0.2,0.1l-0.2,0.1l-0.2,0.1
		l-0.2,0.1l-0.2,0.1l-0.2,0.1l-0.2,0.1l-0.3,0.1l-0.3,0.1l-0.2,0.1l-0.3,0.1l-0.3,0.1l-0.3,0.1l-0.3,0.1l-0.3,0.1l-0.3,0.1l-0.3,0.1
		l-0.3,0.1l-0.3,0.1l-0.3,0.1l-0.4,0.2l-0.3,0.1l-0.3,0.1h-0.3l-0.3,0.1h-0.3h-0.3H102h-0.3h-0.3h-0.3h-0.3h-0.3h-0.3h-0.3h-0.3
		h-0.3H99h-0.3h-0.3h-0.3h-0.3h-0.3h-0.3l-0.3-0.1l-0.3-0.1l-0.3-0.1l-0.3-0.1l-0.3-0.1l-0.3-0.1l-0.3-0.1l-0.3-0.1l-0.3-0.1
		l-0.3-0.1l-0.3-0.1l-0.3-0.1l-0.3-0.1l-0.3-0.1l-0.3-0.1l-0.3-0.1l-0.3-0.1l-0.3-0.1l-0.3-0.1l-0.3-0.1l-0.3-0.1l-0.3-0.1l-0.3-0.1
		l-0.3-0.2l-0.3-0.2l-0.3-0.2l-0.3-0.2l-0.3-0.2l-0.3-0.2l-0.3-0.2l-0.3-0.2l-0.3-0.2l-0.3-0.2l-0.3-0.2l-0.2-0.2l-0.3-0.2l-0.2-0.2
		l-0.2-0.2l-0.2-0.2l-0.2-0.2l-0.2-0.2l-0.2-0.2l-0.2-0.2l-0.2-0.2l-0.2-0.2l-0.2-0.2l-0.2-0.2l-0.2-0.2l-0.2-0.2l-0.2-0.2l-0.2-0.3
		l-0.2-0.2l-0.2-0.3l-0.2-0.3l-0.2-0.3l-0.2-0.3l-0.2-0.3l-0.2-0.3l-0.2-0.3l-0.2-0.3l-0.2-0.3l-0.2-0.3l-0.2-0.3l-0.1-0.3l-0.2-0.3
		l-0.1-0.3l-0.1-0.3l-0.1-0.3l-0.1-0.3l-0.1-0.3l-0.1-0.3l-0.1-0.3l-0.1-0.3l-0.1-0.3l-0.1-0.3l-0.1-0.3l-0.1-0.3l-0.1-0.3l-0.1-0.3
		l-0.1-0.3l-0.1-0.3l-0.1-0.3l-0.1-0.3l-0.1-0.3l-0.1-0.3l-0.1-0.3v-0.3V332v-0.3v-0.3v-0.3v-0.3v-0.3v-0.3V330v-0.3v-0.3v-0.3v-0.3
		v-0.3v-0.3v-0.3v-0.3v-0.3V327l0.1-0.3l0.1-0.3l0.1-0.3l0.1-0.3l0.1-0.3l0.1-0.3l0.1-0.3l0.1-0.3l0.1-0.3l0.1-0.3l0.1-0.3l0.1-0.3
		l0.1-0.3l0.1-0.3l0.1-0.3l0.1-0.3l0.1-0.3l0.1-0.3l0.1-0.3l0.1-0.3l0.1-0.3l0.1-0.3l0.1-0.3l0.1-0.3l0.1-0.3l0.2-0.3l0.1-0.2
		l0.2-0.3l0.2-0.2l0.2-0.3l0.2-0.2l0.2-0.2l0.2-0.2l0.2-0.2l0.2-0.2l0.2-0.2l0.2-0.2l0.2-0.2l0.2-0.2l0.2-0.2l0.2-0.2l0.2-0.2
		l0.2-0.2l0.2-0.2l0.2-0.2l0.2-0.2l0.2-0.2l0.2-0.2l0.2-0.2l0.2-0.2l0.2-0.2l0.2-0.2l0.2-0.2l0.2-0.2l0.2-0.2l0.2-0.2l0.2-0.2
		l0.2-0.2l0.2-0.1l0.2-0.1l0.2-0.1l0.2-0.1l0.2-0.1l0.2-0.1l0.2-0.1l0.2-0.1l0.2-0.1l0.2-0.1l0.2-0.1l0.2-0.1l0.2-0.1l0.2-0.1
		l0.2-0.1l0.2-0.1l0.2-0.1l0.2-0.1l0.2-0.1l0.2-0.1l0.2-0.1l0.2-0.1l0.2-0.1l0.2-0.1l0.2-0.1l0.2-0.1l0.2-0.1l0.2-0.1h0.2h0.2h0.2
		h0.2h0.2h0.2h0.2h0.2h0.2h0.2h0.2h0.2h0.2h0.2h0.2h0.2h0.2h0.2h0.2h0.2h0.2h0.2h0.2h0.2h0.2h0.2h0.2h0.2h0.2l0.2,0.1h0.2l0.2,0.1
		h0.2l0.2,0.1l0.2,0.1l0.2,0.1l0.2,0.1l0.2,0.1l0.2,0.1l0.2,0.1l0.2,0.1l0.2,0.1l0.2,0.1l0.2,0.1l0.2,0.1l0.2,0.1l0.2,0.1l0.2,0.1
		l0.1,0.1l0.1,0.1l0.2,0.1l0.1,0.1l0.1,0.1l0.1,0.1l0.1,0.1l0.1,0.1l0.1,0.1l0.1,0.1l0.1,0.1l0.1,0.1l0.1,0.1l0.1,0.1l0.1,0.1
		l0.1,0.1l0.1,0.1l0.1,0.1l0.1,0.1l0.1,0.1l0.1,0.1l0.1,0.1l0.1,0.1l0.1,0.1l0.1,0.1l0.1,0.1l0.1,0.1l0.1,0.1l0.1,0.1l0.1,0.1
		l0.1,0.1l0.1,0.1l0.1,0.1l0.1,0.1l0.1,0.1l0.1,0.1l0.1,0.1l0.1,0.1l0.1,0.1l0.1,0.1l0.1,0.1l0.1,0.1l0.1,0.1l0.1,0.1l0.1,0.1
		l0.1,0.1l0.1,0.1l0.1,0.1l0.1,0.1l0.1,0.1l0.1,0.1l0.1,0.1l0.1,0.1l0.1,0.1l0.1,0.1l0.1,0.1l0.1,0.1l0.1,0.1l0.1,0.1v0.1l0.1,0.1
		l0.1,0.1l0.1,0.1l0.1,0.1v0.1l0.1,0.1h0.1l0.1,0.1l0,0l0.1,0.1h0.1v0.1h0.1h0.1l0,0h0.1h0.1l0,0h0.1h0.1h0.1l0,0h0.1h0.1h0.1h0.1
		h0.1h0.1h0.1h0.1h0.1h0.1h0.1h0.1h0.1h0.1h0.1h0.1h0.1h0.1h0.1h0.1h0.1h0.1h0.1h0.1h0.1h0.1h0.1h0.1h0.1h0.1h0.1h0.1h0.1h0.1h0.1
		h0.1h0.1h0.1h0.1h0.1h0.1h0.1h0.1h0.1h0.1h0.1h0.1h0.1h0.1h0.1h0.1h0.1h0.1h0.1h0.1h0.1h0.1l0.1,0.1h0.1h0.1l0.1,0.1h0.1l0.1,0.1
		h0.1l0.1,0.1l0.1,0.1l0.1,0.1l0.1,0.1l0.1,0.1l0.1,0.1l0.1,0.1l0.1,0.1l0.1,0.1l0.1,0.1l0.1,0.1l0.1,0.1l0.1,0.1l0.1,0.1l0.1,0.1
		l0.1,0.1l0.1,0.1l0.1,0.1l0.1,0.1l0.1,0.1l0.1,0.1l0.1,0.1l0.1,0.1l0.1,0.1l0.1,0.1l0.1,0.1l0.1,0.1l0.1,0.1l0.1,0.1l0.1,0.1
		l0.1,0.1l0.1,0.1l0.1,0.1l0.1,0.1l0.1,0.1l0.1,0.1l0.1,0.1l0.1,0.1l0.1,0.1l0.1,0.2l0.1,0.1l0.1,0.1l0.1,0.2l0.1,0.2l0.1,0.2
		l0.1,0.2l0.1,0.2l0.1,0.2l0.1,0.2l0.1,0.2l0.1,0.2l0.1,0.2l0.1,0.2l0.1,0.2l0.1,0.2l0.1,0.2l0.1,0.2l0.1,0.2l0.1,0.2l0.1,0.2
		l0.1,0.2l0.1,0.2l0.1,0.2l0.1,0.2l0.1,0.2l0.1,0.2l0.1,0.2l0.1,0.2l0.1,0.2l0.1,0.2l0.1,0.2l0.1,0.2l0.1,0.2l0.1,0.2l0.1,0.2
		l0.1,0.2l0.1,0.2l0.1,0.2l0.1,0.2l0.1,0.2l0.1,0.2v0.2v0.3v0.2v0.2v0.3v0.3v0.2v0.3v0.3v0.3v0.3v0.3v0.3v0.3v0.3v0.3v0.3v0.3v0.3
		v0.3v0.3v0.3v0.3l-0.1,0.3l-0.1,0.3l-0.1,0.3l-0.1,0.3l-0.1,0.3l-0.1,0.3l-0.1,0.3l-0.1,0.3l-0.1,0.3l-0.1,0.3l-0.1,0.3l-0.1,0.3
		l-0.1,0.3l-0.1,0.3l-0.1,0.3l-0.1,0.3l-0.1,0.3l-0.1,0.3l-0.1,0.3l-0.1,0.3l-0.1,0.3l-0.1,0.3l-0.1,0.3l-0.2,0.3l-0.1,0.3l-0.2,0.3
		l-0.2,0.3l-0.2,0.2l-0.2,0.3l-0.2,0.2l-0.2,0.2l-0.2,0.3l-0.2,0.2l-0.2,0.2l-0.2,0.2l-0.2,0.2l-0.2,0.2l-0.2,0.2l-0.2,0.2l-0.2,0.2
		l-0.2,0.2l-0.2,0.2l-0.2,0.2l-0.2,0.2l-0.2,0.2l-0.2,0.2l-0.2,0.2l-0.2,0.2l-0.2,0.2l-0.2,0.2l-0.2,0.2l-0.3,0.2l-0.2,0.2l-0.3,0.2
		l-0.3,0.2l-0.3,0.2l-0.3,0.2l-0.3,0.2l-0.3,0.2l-0.3,0.2l-0.3,0.2l-0.3,0.2l-0.3,0.2l-0.3,0.1l-0.3,0.1l-0.3,0.1l-0.3,0.1l-0.3,0.1
		l-0.3,0.1l-0.3,0.1l-0.3,0.1l-0.3,0.1l-0.3,0.1l-0.3,0.1l-0.3,0.1l-0.3,0.1l-0.3,0.1l-0.3,0.1l-0.3,0.1l-0.3,0.1l-0.3,0.1l-0.3,0.1
		l-0.3,0.1l-0.3,0.1l-0.3-2.1l-0.3,0.1h-0.3h-0.3h-0.3h-0.3h-0.3H105h-0.3h-0.3h-0.3h-0.3h-0.3h-0.3h-0.3h-0.3h-0.3H102h-0.3h-0.3
		l-0.3-0.1l-0.3-0.1l-0.3-0.1l-0.3-0.1l-0.3-0.1l-0.3-0.1l-0.3-0.1L99,352l-0.3-0.1l-0.3-0.1l-0.3-0.1l-0.3-0.1l-0.3-0.1l-0.3-0.1
		l-0.3-0.1l-0.3-0.1l-0.3-0.1L96,351l-0.3-0.1l-0.3-0.1l-0.3-0.1l-1,0l-0.3-0.2l-0.3-0.1l-0.3-0.2l-0.3-0.2l-0.3-0.2l-0.3-0.2
		l-0.3-0.2l-0.3-0.2l-0.3-0.2l-0.3-0.2l-0.3-0.2l-0.3-0.2l-0.2-0.2l-0.2-0.2l-0.3-0.2l-0.2-0.2l-0.2-0.2l-0.2-0.2L89,347l-0.2-0.2
		l-0.2-0.2l-0.2-0.2l-0.2-0.2L88,346l-0.2-0.2l-0.2-0.2l-0.2-0.2l-0.2-0.2L87,345l-0.2-0.2l-0.2-0.2l-0.2-0.2l-0.2-0.2l-0.2-0.3
		l-0.2-0.2l-0.2-0.2l-0.2-0.3l-0.2-0.2l-0.2-0.3l-0.2-0.3l-0.1-0.3l-0.1-0.3l-0.1-0.3l-0.1-0.3l-0.1-0.3l-0.1-0.3l-0.1-0.3L84,340
		l-0.1-0.3l-0.1-0.3l-0.1-0.3l-0.1-0.3l-0.1-0.3l-0.1-0.3l-0.1-0.3l-0.1-0.3l-0.1,0.1l-0.1-0.3l-0.1-0.3l-0.1-0.3l-0.1-0.3l-0.1-0.3
		l-0.1-0.3l-0.1-0.3v-0.3v-0.3l-0.1-0.3v-0.3v-0.3v-0.3v-0.3v-0.3V333v-0.3v-0.3v-0.3v-0.3v-0.3v0.3v-0.3v-0.3V331v-0.3v-0.2v-0.3
		V330v-0.3l0.1-0.2v-0.2l0.1-0.2l0.1-0.2l0.1-0.2l0.1-0.2l0.1-0.2L83,328l0.1-0.2l0.1-0.2l0.1-0.2l0.1-0.2l0.1-0.2l0.1-0.2l0.1-0.2
		l0.1-0.2l0.1-0.2L84,326l0.1-0.2l0.1-0.2l0.1-0.2l0.1-0.2l0.1-0.2l0.1-0.2l0.1-0.2l0.1-0.2l0.1-0.2L85,324l0.1-0.2l0.1-0.2l0.1-0.2
		l0.1-0.2l0.1-0.2l0.1-0.2l0.1-0.2l0.1-0.2l0.1-0.2L86,322l0.1-0.2l0.1-0.1l0.1-0.2l0.1-0.1l0.1-0.1l0.1-0.1l0.1-0.1l0.1-0.1
		l0.1-0.1l0.1-0.1l0.1-0.1l0.1-0.1l0.1-0.1l0.1-0.1l0.1-0.1l0.1-0.1l0.1-0.1l0.1-0.1l0.1-0.1l0.1-0.1l0.1-0.1l0.1-0.1l0.1-0.1
		l0.1-0.1l0.1-0.1l0.1-0.1l0.1-0.1l0.1-0.1l0.1-0.1l0.1-0.1l0.1-0.1l0.1-0.1l0.1-0.1l0.1-0.1l0.1-0.1l0.1-0.1l0.1-0.1l0.1-0.1
		l0.1-0.1l0.1-0.1l0.1-0.1l0.1-0.1h0.1l0.1-0.1l0.1-0.1h0.1l0.1-0.1h0.1l0.1-0.1H91h0.1h0.1h0.1h0.1h0.1h0.1h0.1h0.1h0.1H92h0.1h0.1
		h0.1h0.1h0.1h0.1h0.1h0.1h0.1H93h0.1h0.1h0.1h0.1h0.1h0.1h0.1h0.1h0.1H94h0.1h0.1h0.1h0.1h0.1h0.1h0.1h0.1h0.1H95h0.1h0.1h0.1h0.1
		h0.1h0.1h0.1h0.1h0.1H96h0.1h0.1h0.1h0.1h0.1l0,0h0.1h0.1h0.1h0.1l0,0H97h0.1h0.1l0,0h0.1l0.1-0.1l0,0h0.1l0.1-0.1l0,0l0.1-0.1h0.1
		v-0.1l0.1-0.1l0.1-0.1h0.1v-0.1l0.1-0.1l0.1-0.1l0.1-0.1l0.1-0.1l0.1-0.1l0.1-0.1l0.1-0.1l0.1-0.1l0.1-0.1l0.1-0.1l0.1-0.1l0.1-0.1
		l0.1-0.1l0.1-0.1l0.1-0.1l0.1-0.1l0.1-0.1l0.1-0.1l0.1-0.1l0.1-0.1l0.1-0.1l0.1-0.1l0.1-0.1l0.1-0.1l0.1-0.1l0.1-0.1l0.1-0.1
		l0.1-0.1l0.1-0.1l0.1-0.1l0.1-0.1l0.1-0.1l0.1-0.1l0.1-0.1l0.1-0.1l0.1-0.1l0.1-0.1l0.1-0.1l0.1-0.1l0.1-0.1l0.1-0.1l0.1-0.1
		l0.1-0.1l0.1-0.1l0.1-0.1l0.1-0.1l0.1-0.1l0.1-0.1l0.1-0.1l0.1-0.1l0.1-0.1l0.1-0.1l0.1-0.1l0.1-0.1l0.1-0.1l0.1-0.1l0.1-0.1
		l0.1-0.1l0.1-0.1l0.1-0.1l0.2-0.1l0.1-0.1l0.2-0.1l0.2-0.1l0.1-0.1l0.2-0.1l0.2-0.1l0.2-0.1l0.2-0.1l0.2-0.1l0.2-0.1l0.2-0.1
		l0.2-0.1l0.2-0.1l0.2-0.1l0.2-0.1l0.2-0.1l0.2-0.1h0.2l0.2-0.1h0.2h0.2l0.2-0.1h0.2h0.2h0.2h0.2h0.2h0.2h0.2h0.2h0.2h0.2h0.2h0.2
		h0.2h0.2h0.2h0.2h0.2h0.2h0.2h0.2h0.2h0.2h0.2h0.2h0.2h0.2l0.2,0.1h0.2l0.2,0.1l0.2,0.1l0.2,0.1l0.2,0.1l0.2,0.1l0.2,0.1l0.2,0.1
		l0.2,0.1l0.2,0.1l0.2,0.1l0.2,0.1l0.2,0.1l0.2,0.1l0.2,0.1l0.2,0.1l0.2,0.1l0.2,0.1l0.2,0.1l0.2,0.1l0.2,0.1l0.2,0.1l0.2,0.1
		l0.2,0.1l0.2,0.1l0.2,0.1l0.2,0.2l0.2,0.1l0.2,0.2l0.2,0.2l0.2,0.2l0.2,0.2l0.2,0.2l0.2,0.2l0.2,0.2l0.2,0.2l0.2,0.2l0.2,0.2
		l0.2,0.2l0.2,0.2l0.2,0.2l0.2,0.2l0.2,0.2l0.2,0.2l0.2,0.2l0.2,0.2l0.2,0.2l0.2,0.2l0.2,0.2l0.2,0.2l0.2,0.2l0.2,0.2l0.2,0.2
		l0.2,0.2l0.2,0.2l0.2,0.2l0.2,0.3l0.2,0.2l0.2,0.3l0.1,0.2l0.2,0.3l0.1,0.3l0.1,0.3l0.1,0.3l0.1,0.3l0.1,0.3l0.1,0.3l0.1,0.3
		l0.1,0.3l0.1,0.3l0.1,0.3l0.1,0.3l0.1,0.3l0.1,0.3l0.1,0.3l0.1,0.3l0.1,0.3l0.1,0.3l0.1,0.3l0.1,0.3l0.1,0.3l0.1,0.3l0.1,0.3
		l0.1,0.3l0.1,0.3v0.3v0.3v0.3v0.3v0.3v0.3v0.3v0.3v0.3v0.3v0.3v0.3v0.3v0.3v0.3v0.3v0.3v0.3v0.3l-0.1,0.3l-0.1,0.3l-0.1,0.3
		l-0.1,0.3l-0.1,0.3l-0.1,0.3l-0.1,0.3l-0.1,0.3l-0.1,0.3l-0.1,0.3l-0.1,0.3l-0.1,0.3l-0.1,0.3l-0.1,0.3l-0.1,0.3l-0.1,0.3l-0.1,0.3
		l-0.1,0.3l-0.1,0.3l-0.1,0.3l-0.1,0.3l-0.1,0.3l-0.1,0.3l-0.2,0.3l-0.2,0.3l-0.2,0.3l-0.2,0.3l-0.2,0.3l-0.2,0.3l-0.2,0.3l-0.2,0.3
		l-0.2,0.3l-0.2,0.3l-0.2,0.3l0.2,1.3l-0.2,0.2l-0.2,0.3l-0.2,0.2l-0.2,0.2l-0.2,0.2l-0.2,0.2l-0.2,0.2l-0.2,0.2l-0.2,0.2l-0.2,0.2
		l-0.2,0.2l-0.2,0.2l-0.2,0.2l-0.2,0.2l-0.2,0.2l-0.2,0.2l-0.3,0.2l-0.2,0.2l-0.3,0.2l-0.3,0.2l-0.3,0.2l-0.3,0.2l-0.3,0.2l-0.3,0.2
		l-0.3,0.2l-0.3,0.2l-0.3,0.2l-0.3,0.2l-0.3,0.1l-0.3,0.2l-0.3,0.1l-0.3,0.1l-0.3,0.1l-0.3,0.1l-0.3,0.1l-0.3,0.1l-0.3,0.1l-0.3,0.1
		l-0.3,0.1l-0.3,0.1l-0.3,0.1l-0.3,0.1l-0.3,0.1l-0.3,0.1l-0.3,0.1l-0.3,0.1l-0.3,0.1l-0.3,0.1l-0.3,0.1l-0.3,0.1l-0.3,0.1h-0.3
		l-0.3,0.1h-0.3h-0.3H109h-0.3h-0.3h-0.3h-0.3h-0.3h-0.4h-0.3h-0.3h-0.3h-0.3h-0.3h-0.3H105h-0.3l-0.3-0.1h-0.3l-0.3-0.1l-0.3-0.1
		l-0.3-0.1l-0.3-0.1l-0.3-0.1l-0.3-0.1l-0.3-0.1l-0.3-0.1l-0.3-0.1l-0.3-0.1l-0.3-0.1l-0.3-0.1l-0.3-0.1l-0.3-0.1l-0.2-0.1l-0.3-0.1
		l-0.2-0.1l-0.3-0.1l-0.2-0.1l-0.2-0.1l-0.2-0.1l-0.2-0.1l-0.2-0.1l-0.2-0.1l-0.2-0.1l-0.2-0.1l-0.2-0.1l-0.2-0.1l-0.2-0.1l-0.2-0.1
		l-0.2-0.1l-0.2-0.2l-0.2-0.1l-0.2-0.2l-0.2-0.2l-0.2-0.2l-0.2-0.2l-0.2-0.2l-0.2-0.2l-0.2-0.2l-0.2-0.2l-0.2-0.2l-0.2-0.2l-0.2-0.2
		l-0.2-0.2l-0.2-0.2l-0.2-0.2l-0.2-0.2l-0.2-0.2l-0.2-0.2l-0.1-0.2l-0.2-0.2l-0.1-0.2l-0.1-0.2l-0.1-0.2l-0.1-0.2l-0.1-0.2l-0.1-0.2
		l-0.1-0.2l-0.1-0.2l-0.1-0.2l-0.1-0.2l-0.1-0.2l-0.1-0.2l-0.1-0.2l-0.1-0.2l-0.1-0.2l-0.1-0.2l-0.1-0.2l-0.1-0.2l-0.1-0.2l-0.1-0.2
		l-0.1-0.2l-0.1-0.2l-0.1-0.2l-0.1-0.2l-0.1-0.2l-0.1-0.2l-0.1-0.2l-0.1-0.2l-0.1-0.2l-0.1-0.2l-0.1-0.2v-0.2L89,337v-0.2v-0.2v-0.2
		v-0.2V336v-0.2v-0.2v-0.2v-0.2V335v-0.2v-0.2v-0.2v-0.2V334v-0.2v-0.2v-0.2v-0.1v1.4v-0.2v-0.1v-0.2v-0.1v-0.2v-0.1v-0.1v-0.1v-0.1
		v-0.1v-0.1v-0.1v-0.1V333v-0.1v-0.1v-0.1v-0.1v-0.1v-0.1v-0.1v-0.1v-0.1V332v-0.1v-0.1v-0.1v-0.1v-0.1v-0.1v-0.1v-0.1v-0.1V331
		v-0.1v-0.1v-0.1v-0.1v-0.1v-0.1v-0.1v-0.1v-0.1V330v-0.1v-0.1v-0.1v-0.1v-0.1v-0.1v-0.1v-0.1v-0.1V329v-0.1v-0.1v-0.1v-0.1v-0.1
		v-0.1v-0.1v-0.1v-0.1V328v-0.1v-0.1v-0.1v-0.1v-0.1v-0.1v-0.1v-0.1v0.5v-0.1v-0.1v-0.1v-0.1v-0.1v-0.1V327v-0.1v-0.1v-0.1v-0.1
		v-0.1v-0.1v-0.1v-0.1v-0.1V326v-0.1v-0.1v-0.1v-0.1v-0.1v-0.1v-0.1v-0.1v-0.1V325v-0.1v-0.1v-0.1v-0.1v-0.1v-0.1v-0.1v-0.1v-0.1
		V324v-0.1v-0.1v-0.1v-0.1v-0.1v-0.1v-0.1v-0.1v-0.1V323v-0.1v-0.1v-0.1v-0.1v-0.1v-0.1v-0.1v-0.1v-0.1V322v-0.1v-0.1v-0.1v-0.1
		v-0.1v-0.1v-0.1v-0.1v-0.1V321v-0.1v-0.1v-0.1v-0.1v-0.1v-0.1v-0.2v-0.1v0.6v-0.1v-0.2v-0.1v-0.2v-0.2v-0.2v0v-0.2v-0.2v-0.2v-0.2
		v-0.2v-0.2v-0.2v-0.2v-0.2v-0.2v-0.2v-0.2v-0.2v-0.2v-0.2v-0.2l0.1-0.2l0.1-0.2v-0.2l0.1-0.2l0.1-0.2l0.1-0.2l0.1-0.2l0.1-0.2
		l0.1-0.2l0.1-0.2l0.1-0.2l0.1-0.2l0.1-0.2l0.1-0.2l0.1-0.2l0.1-0.2l0.1-0.2l0.1-0.2l0.1-0.2l0.1-0.2l0.1-0.2l0.1-0.2l0.1-0.2
		l0.1-0.2l0.1-0.2l0.1-0.2l0.1-0.2l0.1-0.2l0.1-0.2l0.1-0.2l0.1-0.2l0.1-0.2l0.1-0.2l0.1-0.2l0.2-0.2l0.2-0.2l0.2-0.2l0.2-0.2
		l0.2-0.2l0.2-0.2l0.2-0.2l0.2-0.2l0.2-0.2l0.2-0.2l0.2-0.2l0.2-0.2l0.2-0.2l0.2-0.2l0.2-0.2l0.2-0.2l0.2-0.1l0.2-0.2l0.2-0.2
		l0.2-0.1l0.2-0.1l0.2-0.2l0.2-0.1l0.2-0.1l0.2-0.1l0.2-0.1l0.2-0.1l0.2-0.1l0.2-0.1l0.2-0.1l0.2-0.1l0.2-0.1l0.2-0.1l0.2-0.1
		l0.3-0.1l0.3-0.1l0.2-0.1l0.3-0.1l0.3-0.1l0.3-0.1l0.3-0.1l0.3-0.1l0.3-0.1l0.3-0.1l0.3-0.1l0.3-0.1l0.3-0.1l0.3-0.1l0.3-0.1
		l0.3-0.1l0.3-0.1h0.3h0.3h0.3h0.3h0.3h0.3h0.3h0.3h0.3h0.3h0.3h0.3h0.3h0.3h0.3h0.3h0.3h0.3h0.3l0.3,0.1h0.3l0.3,0.1l0.3,0.1
		l0.3,0.1l0.3,0.1l0.3,0.1l0.3,0.1l0.3,0.1l0.3,0.1l0.3,0.1l0.3,0.1l0.3,0.1l0.3,0.1l0.3,0.1l0.3,0.1l0.3,0.1l0.3,0.1l0.3,0.1
		l0.3,0.1l0.3,0.1l0.3,0.1l0.3,0.1l0.3,0.1l0.3,0.2l0.3,0.2l0.3,0.2l0.3,0.2l0.3,0.2l0.3,0.2l0.3,0.2l0.3,0.2l0.3,0.2l0.3,0.2
		l0.3,0.2l0.2,0.2l0.3,0.2l0.2,0.2l0.2,0.2l0.2,0.2l0.2,0.2l0.2,0.2l0.2,0.2l0.2,0.2l0.2,0.2l0.2,0.2l0.2,0.2l0.2,0.2l0.2,0.2
		l0.2,0.3l0.2,0.2l0.2,0.3l0.2,0.2l0.2,0.3l0.2,0.3l0.2,0.3l0.2,0.3l0.2,0.3l0.2,0.3l0.2,0.3l0.2,0.3l0.2,0.3l0.2,0.3l0.2,0.3
		l0.1,0.3l0.2,0.3l0.1,0.3l0.1,0.3l0.1,0.3l0.1,0.3l0.1,0.3l0.1,0.3l0.1,0.3l0.1,0.3l0.1,0.3l0.1,0.3l0.1,0.3l0.1,0.3l0.1,0.3
		l0.1,0.3l0.1,0.3l0.1,0.3l0.1,0.3l0.1,0.3l0.1,0.3l0.1,0.3l0.1,0.3l0.1,0.3v0.3v0.3v0.3v0.3v0.3v0.3v0.3v0.3v0.3v0.3v0.3v0.3v0.3
		v0.3v0.3v0.3v0.3l-0.1,0.3v0.3l-0.1,0.3l-0.1,0.3l-0.1,0.3l-0.1,0.3l-0.1,0.3L128,329l-0.1,0.3l-0.1,0.3l-0.1,0.3l-0.1,0.3
		l-0.1,0.3l-0.1,0.3l-0.1,0.3l-0.1,0.3l-0.1,0.3L127,332l-0.1,0.3l-0.1,0.3l-0.1,0.3l-0.1,0.3l-0.1,0.3l-0.1,0.3l-0.2,0.3l-0.1,0.3
		l-0.1,0.3l-0.2,0.2l-0.2,0.3l-0.2,0.2l-0.2,0.3l-0.2,0.2l-0.2,0.2l-0.2,0.2l-0.2,0.2l-0.2,0.2l-0.2,0.2l-0.2,0.2l-0.2,0.2l-0.2,0.2
		l-0.2,0.2l-0.2,0.2l-0.2,0.2l-0.2,0.2l-0.2,0.2l-0.2,0.2l-0.2,0.2l-0.2,0.2l-0.2,0.2l-0.2,0.2l-0.2,0.2l-0.2,0.2l-0.2,0.2l-0.2,0.2
		l-0.2,0.2l-0.2,0.2l-0.2,0.2l-0.2,0.2l-0.2,0.1l-0.2,0.2l-0.2,0.1l-0.2,0.1l-0.2,0.1l-0.2,0.1l-0.2,0.1l-0.2,0.1l-0.2,0.1l-0.2,0.1
		l-0.2,0.1l-0.2,0.1l-0.2,0.1l-0.2,0.1l-0.2,0.1l-0.2,0.1l-0.2,0.1l-0.2,0.1l-0.2,0.1l-0.2,0.1l-0.2,0.1l-0.2,0.1l-0.2,0.1l-0.2,0.1
		l-0.2,0.1l-0.2,0.1l-0.2,0.1l-0.2,0.1H114h-0.2l-0.2,0.1h-0.2h-0.2H113h-0.2h-0.2h-0.2h-0.2H112h-0.2h-0.2h-0.2h-0.2H111h-0.2h-0.2
		h-1.5h-0.2h-0.2h-0.2h-0.2h-0.2h-0.2h-0.2h-0.2h-0.2h-0.2l-0.2-0.1h-0.2l-0.2-0.1h-0.2l-0.2-0.1l-0.2-0.1l-0.2-0.1l-0.2-0.1
		l-0.2-0.1l-0.2-0.1l-0.2-0.1l-0.2-0.1l-0.2-0.1l-0.2-0.1l-0.2-0.1l-0.2-0.1l-0.2-0.1l-0.2-0.1l-0.2-0.1l-0.1-0.1l-0.2-0.1l-0.1-0.1
		l-0.1-0.1l-0.1-0.1l-0.1-0.1l-0.1-0.1l-0.1-0.1l-0.1-0.1l-0.1-0.1l-0.1-0.1l-0.1-0.1l-0.1-0.1l-0.1-0.1l-0.1-0.1l-0.1-0.1l-0.1-0.1
		l-0.1-0.1l-0.1-0.1l-0.1-0.1l-0.1,2.3l-0.1-0.1l-0.1-0.1l-0.1-0.1l-0.1-0.1l-0.1-0.1l-0.1-0.1l-0.1-0.1l-0.1-0.1l-0.1-0.1l-0.1-0.1
		l-0.1-0.1l-0.1-0.1l-0.1-0.1l-0.1-0.1l-0.1-0.1l-0.1-0.1l-0.1-0.1l-0.1-0.1l-0.1-0.1l-0.1-0.1l-0.1-0.1l-0.1-0.1l-0.1-0.1l-0.1-0.1
		l-0.1-0.1l-0.1-0.1l-0.1-0.1l-0.1-0.1l-0.1-0.1l-0.1-0.1l-0.1-0.1l-0.1-0.1l-0.1-0.1l-0.1-0.1l-0.1-0.1l-0.1-0.1l-0.1-0.1l-0.1-0.1
		l-0.1-0.1l-0.1-0.1l-0.1-0.1l1.1,1.1v-0.1l-0.1-0.1h-0.1l-0.1-0.1v-0.1h-0.1l-0.1-0.1l0,0l-0.1-0.1h-0.1l0,0l-0.1-0.1h-0.1h-0.1
		l0,0H97h-0.1l0,0h-0.1h-0.1h-0.1h-0.1h-0.1h-0.1h-0.1h-0.1H96h-0.1h-0.1h-0.1h-0.1h-0.1h-0.1h-0.1h-0.1h-0.1H95h-0.1h-0.1h-0.1
		h-0.1h-0.1h-0.1h-0.1h-0.1h-0.1H94h-0.1h-0.1h-0.1h-0.1h-0.1h-0.1h-0.1h-0.1h-0.1H93h-0.1h-0.1h-0.1h-0.1h-0.1h-0.1h-0.1h-0.1h-0.1
		H92h-0.1h-0.1h-0.1h-0.1h-0.1h-0.1h-0.1h-0.1h-0.1H91h-0.1h-0.1l-0.1-0.1h-0.1l-0.1-0.1h-0.1l-0.1-0.1l-0.1-0.1l-0.1-0.1l-0.1-0.1
		l-0.1-0.1l-0.1-0.1l-0.1-0.1l-0.1-0.1l-0.1-0.1l-0.1-0.1l-0.1-0.1l-0.1-0.1l-0.1-0.1l-0.1-0.1l-0.1-0.1l-0.1-0.1l-0.1-0.1l-0.1-0.1
		l-0.1-0.1l-0.1-0.1l-0.1-0.1l-0.1-0.1l-0.1-0.1l-0.1-0.1l-0.1-0.1l-0.1-0.1l-0.1-0.1l-0.1-0.1l-0.1-0.1l-0.1-0.1l-0.1-0.1l-0.1-0.1
		l-0.1-0.1l-0.1-0.1l-0.1-0.1l-0.1-0.1l-0.1-0.1l-0.1-0.1l-0.1-0.1l-0.1-0.1l-0.1-0.1l-0.1-0.2l-0.1-0.1l-0.1-0.2l-0.1-0.2l-0.1-0.2
		l-0.1-0.2l-0.1-0.2l-0.1-0.2l-0.1-0.2l-0.1-0.2l-0.1-0.2l-0.1-0.9l-0.1-0.2l-0.1-0.2l-0.1-0.2l-0.1-0.2l-0.1-0.2l-0.1-0.2l-0.1-0.2
		l-0.1-0.2l-0.1-0.2l-0.1-0.2l-0.1-0.2l-0.1-0.2l-0.1-0.2l-0.1-0.2l-0.1-0.2l-0.1-0.2l-0.1-0.2l-0.1-0.2l-0.1-0.2l-0.1-0.2l-0.1-0.2
		l-0.1-0.2l-0.1-0.2l-0.1-0.2l-0.1-0.2l-0.1-0.2l-0.1-0.2l-0.1-0.2v-0.2l-0.1-0.2v-0.3v-0.2V325v-0.3v-0.3v-0.2v-0.3v-0.3v-0.3V323
		v-0.3v-0.3v-0.3v-0.3v-0.3v-0.3v-0.3v-0.3v-0.3V320v-0.3l0.1-0.3l0.1-0.3v-0.3l0.1-0.3l0.1-0.3l0.1-0.3l0.1-0.3l0.1-0.3L83,317
		l0.1-0.3l0.1-0.3l0.1-0.3l0.1-0.3l0.1-0.3l0.1-0.3l0.1-0.3l0.1-0.3l0.1-0.3l0.1-0.3l0.1-0.3l0.1-0.3l0.1-0.3l0.1-0.3l0.1-0.3
		l0.1-0.3l0.2-0.3l0.2-0.3l0.2-0.3l0.2-0.2l0.2-0.3l0.2-0.2l0.2-0.2l0.2-0.2l0.2-0.2l0.2-0.2l0.2-0.2l0.2-0.2l0.2-0.2l0.2-0.2
		l0.2-0.2l0.2-0.2l0.2-0.2l0.2-0.2l0.2-0.2l0.2-0.2l0.2-0.2l0.2-0.2l0.2-0.2l0.2-0.2l0.2-0.2l0.2-0.2l0.2-0.2l0.3-0.2l0.2-0.2
		l0.3-0.2l0.3-0.2l0.3-0.2l0.3-0.2L92,305l0.3-0.2l0.3-0.2l0.3-0.2l0.3-0.2l0.3-0.1l0.3-0.2l0.3-0.1l0.3-0.1l0.3-0.1l0.3-0.1
		l0.3-0.1l0.3-0.1l0.3-0.1l0.3-0.1l0.3-0.1l0.3-0.1l0.3-0.1l0.3-0.1l0.3-0.1l0.3-0.1l0.3-0.1l0.3-0.1l0.3-0.1l0.3-0.1l0.3-0.1
		l0.3-0.1l0.3-0.1h0.3l0.3-0.1h0.3h0.3h0.3h0.3h0.3h0.3h0.3h0.3h0.3h0.3h0.3h0.3h0.3h0.3h0.3h0.3l0.3,0.1h0.3l0.3,0.1l0.3,0.1
		l0.3,0.1l0.3,0.1l0.3,0.1l0.3,0.1l0.3,0.1l0.3,0.1l0.3,0.1l0.3,0.1l0.3,0.1l0.3,0.1l0.3,0.1l0.3,0.1l0.3,0.1l0.3,0.1l0.3,0.1
		l0.3,0.1l0.3,0.1l0.3,0.1l0.3,0.1l0.3,0.1l0.3,0.2l0.3,0.2l0.3,0.2l0.3,0.2l0.3,0.2l0.3,0.2l0.3,0.2l0.3,0.2l0.3,0.2l0.3,0.2
		l0.3,0.2l0.2,0.2l0.2,0.2l0.2,0.2l0.2,0.2l0.2,0.2l0.2,0.2l0.2,0.2l0.2,0.2l0.2,0.2l0.2,0.2l0.2,0.2l0.2,0.2l0.2,0.2l0.2,0.2
		l0.2,0.2l0.2,0.2l0.2,0.2l0.2,0.2l0.2,0.2l0.2,0.2l0.2,0.2l0.2,0.2l0.2,0.3l0.2,0.2l0.2,0.3l0.2,0.2l0.2,0.3l0.1,0.3l0.2,0.3
		l0.1,0.3l0.1,0.3l0.1,0.3l0.1,0.3l0.1,0.3l0.1,0.3l0.1,0.3l0.1,0.3l0.1,0.3l0.1,0.3l0.1,0.3l0.1,0.3l0.1,0.3l0.1,0.3l0.1,0.3
		l0.1,0.3l0.1,0.3l0.1,0.3l0.1,0.3l0.1,0.3l0.1,0.3l0.1,0.3l0.1,0.3l0.1,0.3v0.3v0.3v0.3v0.3v0.3v0.3v0.3v0.3v0.3v0.3v0.3v0.3v0.3
		v0.3v0.3v0.3v0.2v0.3v0.2v0.3v0.2v0.2v0.3l-0.1,0.2l-0.1,0.2l-0.1,0.2l-0.1,0.2l-0.1,0.2l-0.1,0.2l-0.1,0.2l-0.1,0.2l-0.1,0.2
		l-0.1,0.2l-0.1,0.2l-0.1,0.2l-0.1,0.2l-0.1,0.2l-0.1,0.2l-0.1,0.2l-0.1,0.2l-0.1,0.2l-0.1,0.2l-0.1,0.2l-0.1,0.2l-0.1,0.2l-0.1,0.2
		l-0.1,0.2l-0.1,0.2l-0.1,0.2l-0.1,0.2l-0.1,0.2l-0.1,0.2l-0.1,0.2l-0.1,0.2l-0.1,0.2l-0.1,0.2l-0.1,0.2l-0.1,0.2l-0.1,0.2l-0.1,0.2
		l-0.1,0.2l-0.1,0.1l-0.1,0.2l-0.1,0.1l-0.1,0.1l-0.1,0.1l-0.1,0.1l-0.1,0.1l-0.1,0.1l-0.1,0.1l-0.1,0.1l-0.1,0.1l-0.1,0.1l-0.1,0.1
		l-0.1,0.1l-0.1,0.1l-0.1,0.1l-0.1,0.1l-0.1,0.1l-0.1,0.1l-0.1,0.1l-0.1,0.1l-0.1,0.1l-0.1,0.1l-0.1,0.1l-0.1,0.1l-0.1,0.1l-0.1,0.1
		l-0.1,0.1l-0.1,0.1l-0.1,0.1l-0.1,0.1l-0.1,0.1l-0.1,0.1l-0.1,0.1l-0.1,0.1l-0.1,0.1l-0.1,0.1l-0.1,0.1l-0.1,0.1l-0.1,0.1l-0.1,0.1
		l-0.1,0.1l-0.1,0.1h-0.1l-0.1,0.1h-0.1l-0.1,0.1h-0.1h-0.1h-0.1h-0.1h-0.1H115h-0.1h-0.1h-0.1h-0.1h-0.1h-0.1h-0.1h-0.1h-0.1H114
		h-0.1h-0.1h-0.1h-0.1h-0.1h-0.1h-0.1h-0.1h-0.1H113h-0.1h-0.1h-0.1h-0.1h-0.1h-0.1h-0.1h-0.1h-0.1H112h-0.1h-0.1h-0.1h-0.1h-0.1
		h-0.1h-0.1h-0.1h-0.1H111h-0.1h-0.1h-0.1h-0.1h-0.1h-0.1h-0.1h-0.1h-0.1H110h-0.1h-0.1h-0.1h-0.1l0,0h-0.1h-0.1h-0.1l0,0h-0.1
		l-0.1,0.1H109l0,0h-0.1l-0.1,0.1l0,0l-0.1,0.1h-0.1v0.1l-0.1,0.1h-0.1v0.1l-0.1,0.1l-0.1,0.1l-0.1,0.1l-0.1,0.1l-0.1,0.1v0.1
		l-0.1,0.1l-0.1,0.1l-0.1,0.1l-0.1,0.1l-0.1,0.1l-0.1,0.1l-0.1,0.1l-0.1,0.1l-0.1,0.1l-0.1,0.1l-0.1,0.1l-0.1,0.1l-0.1,0.1l-0.1,0.1
		l-0.1,0.1l-0.1,0.1l-0.1,0.1l-0.1,0.1l-0.1,0.1l-0.1,0.1l-0.1,0.1l-0.1,0.1l-0.1,0.1l-0.1,0.1l-0.1,0.1l-0.1,0.1l-0.1,0.1l-0.1,0.1
		l-0.1,0.1l-0.1,0.1l-0.1,0.1l-0.1,0.1l-0.1,0.1l-0.1,0.1l-0.1,0.1l-0.1,0.1l-0.1,0.1l-0.1,0.1l-0.1,0.1l-0.1,0.1l-0.1,0.1l-0.1,0.1
		l-0.1,0.1l-0.1,0.1l-0.1,0.1l-0.1,0.1l-0.1,0.1l-0.1,0.1l-0.1,0.1l-0.1,0.1l-0.1,0.1l-0.1,0.1l-0.1,0.1l-0.1,0.1l-0.1,0.1l-0.1,0.1
		l-0.1,0.1l-0.2,0.1l-0.2,0.1l-0.1,0.1l-0.2,0.1l-0.2,0.1l-0.2,0.1l-0.2,0.1l-0.2,0.1l-0.2,0.1l-0.2,0.1l-0.2,0.1l-0.2,0.1l-0.2,0.1
		l-0.2,0.1l-0.2,0.1l-0.2,0.1h-0.2l-0.2,0.1h-0.2l-0.2,0.1h-0.2h-0.2h-0.2h-0.2h-0.2h-0.2h-0.2h-0.2h-0.2h-0.2h-0.2h-0.2h-0.2h-0.2
		h-0.2h1.8h-0.2h-0.2h-0.2h-0.2h-0.2h-0.2h-0.2h-0.2h-0.2h-0.2h-0.2h-0.2h-0.2l-0.2-0.1l-0.2-0.1l-0.2-0.1l-0.2-0.1l-0.2-0.1
		l-0.2-0.1l-0.2-0.1l-0.2-0.1l-0.2-0.1l-0.2-0.1l-0.2-0.1l-0.2-0.1l-0.2-0.1l-0.2-0.1l-0.2-0.1l-0.2-0.1l-0.2-0.1l-0.2-0.1l-0.2-0.1
		l-0.2-0.1l-0.2-0.1l-0.2-0.1l-0.2-0.1l-0.2-0.1l-0.2-0.1l-0.2-0.1l-0.2-0.1l-0.2-0.2l-0.2-0.1l-0.2-0.2l-0.2-0.2l-0.2-0.2l-0.2-0.2
		l-0.2-0.2l-0.2-0.2l-0.2-0.2l-0.2-0.2l-0.2-0.2l-0.2-0.2l-0.2-0.2l-0.2-0.2l-0.2-0.2l-0.2-0.2l-0.2-0.2l-0.2-0.2l-0.2-0.2l-0.2-0.2
		l-0.2-0.2l-0.2-0.2l-0.2-0.2l-0.2-0.2l-0.2-0.2l-0.2-0.2l-0.2-0.2l-0.2-0.2l-0.2-0.2l-0.2-0.2l-0.2-0.3l-0.1-0.3l-0.2-0.2l-0.1-0.3
		l-0.1-0.3l-0.1-0.3l-0.1-0.3l-0.1-0.3L82,336l-0.1-0.3l-0.1-0.3l-0.1-0.3l-0.1-0.3l-0.1-0.3l-0.1-0.3l-0.1-0.3l-0.1-0.3l-0.1-0.3
		L81,333l-0.1-0.3l-0.1-0.3l-0.1-0.3l-0.1-0.3l-0.1-0.3l-1.4-1.7l-0.1-0.3l-0.1-0.3l-0.1-0.3l-0.1-0.3v-0.3V328v-0.3v-0.3v-0.3v-0.3
		v-0.3v-0.3v-0.3v-0.3v-0.3V325v-0.3v-0.3v-0.3v-0.3l0.1-0.3v-0.3l0.1-0.3l0.1-0.3l0.1-0.3l0.1-0.3l0.1-0.3l0.1-0.3l0.1-0.3l0.1-0.3
		l0.1-0.3l0.1-0.3l0.1-0.3l0.1-0.3l0.1-0.3l0.1-0.3l0.1-0.3l0.1-0.3l0.1-0.3l0.1-0.3l0.1-0.3l0.1-0.3l0.1-0.3l0.2-0.3l0.1-0.3
		l0.2-0.3l0.2-0.3l0.2-0.3l0.2-0.3l0.2-0.3l0.2-0.3l0.2-0.3l0.2-0.3l0.2-0.3l0.2-0.3l0.2-0.3l0.2-0.3l0.2-0.2l0.2-0.3l0.2-0.2
		l0.2-0.2l0.2-0.2l0.2-0.2l0.2-0.2l0.2-0.2l0.2-0.2l0.2-0.2l0.2-0.2l0.2-0.2l0.2-0.2l0.2-0.2l0.3-0.2l0.2-0.2l0.3-0.2l0.2-0.2
		l0.3-0.2l0.3-0.2l0.3-0.2l0.3-0.2l0.3-0.2l0.3-0.2l0.3-0.2l0.3-0.2l0.3-0.2l0.3-0.2l0.3-0.1l0.3-0.1l0.3-0.1l0.3-0.1l0.3-0.1
		l0.3-0.1l0.3-0.1l0.3-0.1l0.3-0.1l0.3-0.1l0.3-0.1l0.3-0.1l0.3-0.1l0.3-0.1l0.3-0.1l0.3-0.1l0.3-0.1l0.3-0.1l0.3-0.1l0.3-0.1
		l0.3-0.1l0.3-0.1h0.3l0.3-0.1h0.3h0.3h0.3h0.3h0.3h0.3h0.3h0.3h0.3h0.3h0.3h0.3h0.3h0.3h0.3h0.3h0.3h0.3h0.3l0.3,0.1h0.3l0.3,0.1
		l0.3,0.1l0.3,0.1l0.3,0.1l0.3,0.1l0.3,0.1l0.3,0.1l0.3,0.1l0.3,0.1l0.3,0.1l0.3,0.1l0.3,0.1l0.3,0.1l0.2,0.1l0.3,0.1l0.2,0.1
		l0.3,0.1l0.2,0.1l0.2,0.1l0.2,0.1l0.2,0.1l0.2,0.1l0.2,0.1l0.2,0.1l0.2,0.1l0.2,0.1l0.2,0.1l0.2,0.1l0.2,0.2l0.2,0.1l0.2,0.1
		l0.2,0.2l0.2,0.2l0.2,0.2l0.2,0.2l0.2,0.2l0.2,0.2l0.2,0.2l0.2,0.2l0.2,0.2l0.2,0.2l0.2,0.2l0.2,0.2l0.2,0.2l0.2,0.2l0.2,0.2
		l0.2,0.2l0.2,0.2l0.1,0.2l0.2,0.2l0.1,0.2l0.1,0.2l0.1,0.2l0.1,0.2l0.1,0.2l0.1,0.2l0.1,0.2l0.1,0.2l0.1,0.2l0.1,0.2l0.1,0.2
		l0.1,0.2l0.1,0.2l0.1,0.2l0.1,0.2l0.1,0.2l0.1,0.2l0.1,0.2l0.1,0.2l0.1,0.2l0.1,0.2l0.1,0.2l0.1,0.2l0.1,0.2l0.1,0.2l0.1,0.2
		l0.1,0.2l0.1,0.2l0.1,0.2l0.1,0.2v0.2l0.1,0.2l0.1,0.2v0.2v0.2l0.1,0.2v0.2v0.2v0.2v0.2v0.2v0.2v0.2v0.2v0.2v0.2v0.2v0.2v0.2v0.2
		v0.2v0.2v0.2v0.2v0.2v0.1v0.2v0.1v0.1v0.2v0.1v0.1v0.1v0.1v0.1v0.1v0.1v0.1v0.1v0.1v0.1v0.1v0.1v0.1v0.1v0.1v0.1v0.1v0.1v0.1v0.1
		v0.1v0.1v0.1v0.1v0.1v0.1v0.1v0.1v0.1v0.1v0.1v0.1v0.1v0.1v0.1v0.1v0.1v0.1v0.1v0.1v0.1v0.1v0.1v0.1v0.1v0.1v0.1v0.1v0.1v0.1v0.1
		v0.1v0.1v0.1v0.1v0.1v0.1v0.1v0.1v0.1v0.1v0.1v0.1v0.1v0.1v0.1v-2.6H116.9"/>
</g>
<radialGradient id="SVGID_00000007419060575741888040000005398676707870326943_" cx="-933.3309" cy="-2.6704" r="1" gradientTransform="matrix(2.141656e-14 349.759 -349.759 2.141656e-14 -602.0134 326773.8438)" gradientUnits="userSpaceOnUse">
	<stop  offset="0" style="stop-color:#FFFFFF"/>
	<stop  offset="1" style="stop-color:#FFFFFF;stop-opacity:0"/>
</radialGradient>
<path style="opacity:0.2;fill:url(#SVGID_00000007419060575741888040000005398676707870326943_);enable-background:new    ;" d="
	M663.5,504.1V333.9h0.5V332h-0.5V161.8c0-41.7-16.3-81.8-45.3-111.8v-3.1h45.3V45h-44l42.2-42.5l-1.3-1.3l-42.2,42.5V2.1h-1.9V45
	h-3.2C583.6,16.8,544.3,1,503.4,1H160C119.2,1,79.9,16.8,50.4,45h-3.2V2.1h-1.9v41.5L3.1,1.2L1.8,2.5L44,44.9H2.7v1.9h42.6V50
	C16.2,79.9,0,120,0,161.8v342.3c0,41.7,16.2,81.8,45.3,111.8v3.1H2.7v1.9H44L1.8,663.4l1.3,1.3l42.2-42.5v41.5h1.9v-42.8h3.2
	c29.5,28.2,68.8,44,109.7,44h343.4c40.9,0,80.1-15.8,109.7-44h3.2v42.8h1.9v-41.5l42.2,42.5l1.3-1.3l-42.2-42.5H664V619h-45.8v-3.1
	C647.2,585.9,663.4,545.8,663.5,504.1z M661.6,504.1c0,40.6-15.5,79.6-43.4,109.1V451.9h42.7V450h-42.7V333.9h43.4V504.1z
	 M449.5,450l-1.3-1.3c2.1-2.2,4.2-4.4,6.2-6.7v8H449.5z M454.5,451.9v3.1l-3.1-3.1H454.5z M210.1,450v-6.8c1.7,1.9,3.4,3.7,5.1,5.5
	l-1.3,1.3H210.1z M212.1,451.9l-2,2v-2H212.1z M213.9,215.8l1.3,1.3c-1.8,1.8-3.5,3.6-5.1,5.5v-6.8H213.9z M210.1,214v-2l2,2H210.1z
	 M454.5,215.8v8c-2-2.3-4.1-4.5-6.2-6.7l1.3-1.3H454.5z M451.4,214l3.1-3.1v3.1H451.4z M454.5,332h-4.4c-0.2-30.9-12.4-60.5-34-82.5
	l30.9-31c2.6,2.6,5.1,5.4,7.5,8.2V332z M456.3,228.9c24,29,37.2,65.4,37.3,103.1h-37.3V228.9z M414.7,250.8
	c21.3,21.7,33.3,50.8,33.5,81.2H334L414.7,250.8z M332.7,330.5V215.8c30.3,0.2,59.3,12.3,80.7,33.6L332.7,330.5z M330.8,330.5
	L250,249.4c21.5-21.3,50.5-33.3,80.7-33.5L330.8,330.5L330.8,330.5z M329.5,331.8H215.3c0.2-30.4,12.2-59.5,33.5-81.2L329.5,331.8z
	 M329.5,333.7l-80.7,81.2c-21.3-21.7-33.3-50.8-33.5-81.2H329.5z M330.8,335v115c-30.3-0.2-59.3-12.3-80.7-33.6L330.8,335z
	 M332.7,335l80.7,81.2C392,437.6,363,449.8,332.7,450V335z M334,333.7h114.2c-0.2,30.4-12.2,59.5-33.5,81.2L334,333.7z M445.6,217.1
	l-30.9,31c-17-16.8-38.6-28.1-62.1-32.3h91.7L445.6,217.1z M332.7,214v-43.8c40.8,0.2,80,15.9,109.6,43.9L332.7,214z M330.8,214
	H221.2c29.7-28,68.9-43.7,109.6-43.9V214z M310.9,215.8c-23.5,4.2-45.2,15.5-62.1,32.3l-30.9-31l1.3-1.3H310.9z M216.5,218.4
	l30.9,31c-21.6,22-33.8,51.6-34,82.5h-3.3V225.4C212.2,223.1,214.3,220.7,216.5,218.4L216.5,218.4z M208.2,331.9h-38.4
	c0.1-38.2,13.8-75.2,38.4-104.4L208.2,331.9L208.2,331.9z M208.2,333.8v104.4c-24.7-29.2-38.3-66.1-38.4-104.4H208.2z M210.1,333.8
	h3.3c0.2,30.9,12.4,60.5,34,82.5l-30.9,31c-2.2-2.3-4.4-4.6-6.4-7L210.1,333.8z M217.9,448.8l30.9-31c17,16.8,38.6,28.1,62.1,32.3
	h-91.7L217.9,448.8z M330.8,451.9v43.9c-40.8-0.2-80-15.9-109.6-43.9H330.8z M332.7,451.9h109.6c-29.7,28-68.9,43.7-109.6,43.9
	V451.9z M352.6,450c23.5-4.2,45.2-15.5,62.1-32.3l30.9,31l-1.3,1.3H352.6z M446.9,447.5l-30.9-31c21.6-22,33.8-51.6,34-82.5h4.4
	v105.3C452,442,449.5,444.8,446.9,447.5z M456.3,333.9h37.3c-0.1,37.7-13.3,74.1-37.3,103.1V333.9z M495.6,332.1
	c-0.1-38.9-14-76.4-39.2-106v-10.2h99c18.6,35.9,28.4,75.7,28.5,116.1L495.6,332.1z M456.3,214v-5l54.3-54.5
	c17.4,17.6,32.1,37.7,43.7,59.5H456.3z M456.3,206.4v-93.8c19.4,11.1,37.2,24.7,53,40.5L456.3,206.4z M454.5,208.3l-5.7,5.7H445
	c-30.2-29.2-70.4-45.6-112.4-45.8V79.6c42.7,0.1,84.6,11.1,121.8,32L454.5,208.3L454.5,208.3z M330.8,168.2
	c-41.9,0.2-82.2,16.6-112.4,45.7h-3.7l-4.6-4.7V111c36.9-20.5,78.5-31.3,120.7-31.4V168.2z M208.2,207.4l-54-54.3
	c16.1-16.1,34.3-29.9,54-41.1V207.4z M208.2,210.1v3.9h-99.1c11.6-21.9,26.3-41.9,43.7-59.5L208.2,210.1z M208.2,215.9v8.9
	c-25.9,29.8-40.2,67.8-40.3,107.3H79.7c0.1-40.4,9.8-80.3,28.5-116.2L208.2,215.9z M167.9,333.9c0.2,39.4,14.5,77.5,40.3,107.3v8.9
	h-100C89.6,414.2,79.8,374.4,79.7,334L167.9,333.9z M208.2,451.9v3.9l-55.3,55.6c-17.4-17.6-32.1-37.7-43.7-59.5H208.2z
	 M208.2,458.4v95.4c-19.8-11.2-38-25-54-41.1L208.2,458.4z M210.1,456.6l4.6-4.7h3.7c30.2,29.2,70.4,45.5,112.4,45.7v88.7
	c-42.2-0.1-83.8-10.9-120.7-31.4L210.1,456.6L210.1,456.6z M332.7,497.7c41.9-0.2,82.2-16.6,112.4-45.7h3.7l5.7,5.7v96.6
	c-37.2,20.9-79.1,31.9-121.8,32V497.7z M456.3,459.5l53,53.2c-15.8,15.8-33.6,29.4-53,40.5V459.5z M456.3,456.9v-5h98
	c-11.6,21.9-26.3,41.9-43.7,59.5L456.3,456.9z M456.3,450v-10.1c25.2-29.6,39.1-67.1,39.2-106h88.2c-0.1,40.4-9.8,80.3-28.5,116.1
	H456.3z M585.6,333.9h30.7V450h-58.9C575.9,414.1,585.5,374.3,585.6,333.9L585.6,333.9z M585.6,332c-0.1-40.4-9.8-80.2-28.2-116.2
	h58.9V332H585.6z M556.4,214c-11.7-22.4-26.7-42.9-44.5-60.9L615.1,49.5l0.1,0.1c0.4,0.4,0.8,0.8,1.2,1.3V214H556.4z M613.7,48.2
	L510.6,151.8c-16.2-16.1-34.4-30-54.3-41.3V46.9h156L613.7,48.2z M454.5,109.5c-37.3-20.7-79.2-31.7-121.8-31.8V46.8h121.8V109.5z
	 M332.7,45V2.8h121.8V45H332.7z M330.8,45H210.1V2.8h120.7V45z M330.8,46.9v30.9c-42.2,0.1-83.7,10.8-120.7,31.2V47L330.8,46.9
	L330.8,46.9z M208.2,109.9c-20.3,11.4-38.9,25.5-55.3,41.9L49.8,48.2l1.3-1.3h157.1L208.2,109.9L208.2,109.9z M48.3,49.5L48.3,49.5
	l103.2,103.6c-17.7,18-32.7,38.5-44.5,60.9H47.2V50.8C47.6,50.4,47.9,49.9,48.3,49.5z M106.1,215.8c-18.5,36-28.2,75.8-28.3,116.2
	H47.2V215.8H106.1z M77.8,333.9c0.1,40.4,9.8,80.2,28.2,116.2H47.2V333.9H77.8z M107.1,451.9c11.7,22.4,26.7,42.9,44.5,60.9
	L48.4,616.4l-0.1-0.1c-0.4-0.4-0.8-0.8-1.2-1.3V451.9H107.1z M49.8,617.7l103.1-103.6c16.5,16.4,35.1,30.5,55.3,41.9v63H51.1
	L49.8,617.7z M210.1,557c37,20.3,78.5,31.1,120.7,31.2v30.9H210.1V557z M330.8,620.9v42.2H210.1v-42.2H330.8z M332.7,620.9h121.8
	v42.2H332.7V620.9z M332.7,619v-30.9c42.6-0.1,84.5-11,121.8-31.8V619H332.7z M456.3,555.4c19.9-11.3,38.1-25.2,54.3-41.3
	l103.1,103.6l-1.3,1.3H456.3V555.4z M615.1,616.3L615.1,616.3L511.9,512.8c17.7-18,32.7-38.5,44.5-60.9h59.9v163.2L615.1,616.3z
	 M661.6,161.8V332h-43.4V215.8h42.7V214h-42.7V52.7C646,82.2,661.6,121.2,661.6,161.8z M610.4,44.9H456.3V2.8h47.1
	C543.1,2.8,581.3,17.9,610.4,44.9L610.4,44.9z M160,2.8h48.2V45H53.1C82.1,17.9,120.3,2.8,160,2.8L160,2.8z M1.9,504.1V161.8
	c0-40.6,15.5-79.6,43.4-109.1v161.2H2.6v1.9h42.7V332H2.4v1.9h42.9V450H2.6v1.9h42.7v161.2C17.4,583.7,1.9,544.7,1.9,504.1z
	 M53.1,620.9h155.1v42.2H160C120.3,663.1,82.1,648,53.1,620.9L53.1,620.9z M503.5,663.1h-47.1v-42.2h154.1
	C581.3,648,543.1,663,503.5,663.1L503.5,663.1z"/>
</svg>
